<svg xmlns="http://www.w3.org/2000/svg" xmlns:xlink="http://www.w3.org/1999/xlink" width="500" zoomAndPan="magnify" viewBox="0 0 375 374.999991" height="500" preserveAspectRatio="xMidYMid meet" version="1.0"><path fill="#f9c6cf" d="M 219.960938 131.148438 C 317.535156 -37.855469 57.335938 -37.855469 154.914062 131.148438 C 57.339844 -37.855469 -72.761719 187.484375 122.386719 187.484375 C -72.761719 187.484375 57.339844 412.824219 154.914062 243.820312 C 57.339844 412.824219 317.539062 412.824219 219.960938 243.820312 C 317.535156 412.824219 447.636719 187.484375 252.488281 187.484375 C 447.636719 187.484375 317.539062 -37.855469 219.960938 131.148438 Z M 219.960938 131.148438 " fill-opacity="1" fill-rule="nonzero"/><path fill="#ec9191" d="M 234.796875 187.484375 C 234.796875 189.035156 234.722656 190.582031 234.570312 192.128906 C 234.417969 193.671875 234.191406 195.203125 233.886719 196.726562 C 233.585938 198.246094 233.207031 199.75 232.757812 201.234375 C 232.308594 202.71875 231.785156 204.175781 231.191406 205.609375 C 230.597656 207.042969 229.9375 208.441406 229.207031 209.808594 C 228.472656 211.179688 227.679688 212.507812 226.816406 213.796875 C 225.953125 215.085938 225.03125 216.332031 224.046875 217.53125 C 223.0625 218.730469 222.023438 219.875 220.925781 220.972656 C 219.828125 222.070312 218.683594 223.109375 217.484375 224.09375 C 216.285156 225.078125 215.039062 226 213.75 226.863281 C 212.460938 227.726562 211.132812 228.523438 209.761719 229.253906 C 208.394531 229.984375 206.996094 230.644531 205.5625 231.238281 C 204.128906 231.832031 202.671875 232.355469 201.1875 232.804688 C 199.703125 233.257812 198.199219 233.632812 196.675781 233.933594 C 195.15625 234.238281 193.625 234.464844 192.082031 234.617188 C 190.535156 234.769531 188.988281 234.84375 187.4375 234.84375 C 185.886719 234.84375 184.339844 234.769531 182.796875 234.617188 C 181.253906 234.464844 179.71875 234.238281 178.199219 233.933594 C 176.675781 233.632812 175.175781 233.257812 173.691406 232.804688 C 172.207031 232.355469 170.746094 231.832031 169.3125 231.238281 C 167.882812 230.644531 166.480469 229.984375 165.113281 229.253906 C 163.746094 228.523438 162.417969 227.726562 161.125 226.863281 C 159.835938 226 158.59375 225.078125 157.394531 224.09375 C 156.195312 223.109375 155.046875 222.070312 153.949219 220.972656 C 152.851562 219.875 151.8125 218.730469 150.828125 217.53125 C 149.84375 216.332031 148.921875 215.085938 148.058594 213.796875 C 147.199219 212.507812 146.402344 211.179688 145.671875 209.808594 C 144.9375 208.441406 144.277344 207.042969 143.683594 205.609375 C 143.089844 204.175781 142.566406 202.71875 142.117188 201.234375 C 141.667969 199.75 141.289062 198.246094 140.988281 196.726562 C 140.6875 195.203125 140.457031 193.671875 140.304688 192.128906 C 140.152344 190.582031 140.078125 189.035156 140.078125 187.484375 C 140.078125 185.933594 140.152344 184.386719 140.304688 182.84375 C 140.457031 181.300781 140.6875 179.765625 140.988281 178.246094 C 141.289062 176.722656 141.667969 175.222656 142.117188 173.738281 C 142.566406 172.253906 143.089844 170.792969 143.683594 169.363281 C 144.277344 167.929688 144.9375 166.527344 145.671875 165.160156 C 146.402344 163.792969 147.199219 162.464844 148.058594 161.171875 C 148.921875 159.882812 149.84375 158.640625 150.828125 157.441406 C 151.8125 156.242188 152.851562 155.09375 153.949219 153.996094 C 155.046875 152.898438 156.195312 151.859375 157.394531 150.875 C 158.59375 149.890625 159.835938 148.96875 161.125 148.105469 C 162.414062 147.246094 163.746094 146.449219 165.113281 145.71875 C 166.480469 144.988281 167.882812 144.324219 169.3125 143.730469 C 170.746094 143.136719 172.207031 142.613281 173.691406 142.164062 C 175.175781 141.714844 176.675781 141.339844 178.199219 141.035156 C 179.71875 140.734375 181.253906 140.503906 182.796875 140.351562 C 184.339844 140.203125 185.886719 140.125 187.4375 140.125 C 188.988281 140.125 190.535156 140.203125 192.082031 140.351562 C 193.625 140.503906 195.15625 140.734375 196.675781 141.035156 C 198.199219 141.339844 199.703125 141.714844 201.1875 142.164062 C 202.671875 142.613281 204.128906 143.136719 205.5625 143.730469 C 206.996094 144.324219 208.394531 144.988281 209.761719 145.71875 C 211.132812 146.449219 212.460938 147.246094 213.75 148.105469 C 215.039062 148.96875 216.285156 149.890625 217.484375 150.875 C 218.683594 151.859375 219.828125 152.898438 220.925781 153.996094 C 222.023438 155.09375 223.0625 156.242188 224.046875 157.441406 C 225.03125 158.640625 225.953125 159.882812 226.816406 161.171875 C 227.679688 162.464844 228.472656 163.792969 229.207031 165.160156 C 229.9375 166.527344 230.597656 167.929688 231.191406 169.363281 C 231.785156 170.792969 232.308594 172.253906 232.757812 173.738281 C 233.207031 175.222656 233.585938 176.722656 233.886719 178.246094 C 234.191406 179.765625 234.417969 181.300781 234.570312 182.84375 C 234.722656 184.386719 234.796875 185.933594 234.796875 187.484375 Z M 234.796875 187.484375 " fill-opacity="1" fill-rule="nonzero"/></svg>